<svg xmlns="http://www.w3.org/2000/svg" viewBox="0 0 2116 466" fill="none">
  <path d="M1996.1 186.204C2017.13 147.85 2057.96 128.055 2115.49 128.055V185.585C2110.54 184.967 2106.21 184.967 2101.88 184.967C2038.17 184.967 1998.57 223.939 1998.57 295.698V459.011H1939.19V131.148H1996.1V186.204Z" fill="#062F7E"/>
  <path d="M1875.28 296.935C1875.28 301.884 1874.66 309.307 1874.05 314.875H1608.04C1615.47 372.406 1661.86 410.759 1726.82 410.759C1765.17 410.759 1797.34 397.769 1821.46 371.168L1854.25 409.522C1824.56 444.164 1779.4 462.723 1724.96 462.723C1619.18 462.723 1548.66 392.82 1548.66 295.079C1548.66 197.958 1618.56 128.055 1713.21 128.055C1807.85 128.055 1875.28 196.102 1875.28 296.935ZM1713.21 178.162C1656.29 178.162 1614.23 216.516 1608.04 272.191H1818.37C1812.18 217.135 1770.74 178.162 1713.21 178.162Z" fill="#062F7E"/>
  <path d="M1424.75 459.009V0H1484.14V459.009H1424.75Z" fill="#062F7E"/>
  <path d="M1360.84 296.935C1360.84 301.884 1360.23 309.307 1359.61 314.875H1093.61C1101.03 372.406 1147.42 410.759 1212.38 410.759C1250.73 410.759 1282.9 397.769 1307.03 371.168L1339.81 409.522C1310.12 444.164 1264.96 462.723 1210.52 462.723C1104.74 462.723 1034.22 392.82 1034.22 295.079C1034.22 197.958 1104.12 128.055 1198.77 128.055C1293.42 128.055 1360.84 196.102 1360.84 296.935ZM1198.77 178.162C1141.86 178.162 1099.79 216.516 1093.61 272.191H1303.93C1297.75 217.135 1256.3 178.162 1198.77 178.162Z" fill="#062F7E"/>
  <path d="M877.414 462.723C776.58 462.723 704.203 392.82 704.203 295.079C704.203 197.339 776.58 128.055 877.414 128.055C936.182 128.055 985.052 152.18 1011.03 197.958L965.875 227.032C944.842 194.865 912.675 180.018 876.795 180.018C812.46 180.018 764.208 225.176 764.208 295.079C764.208 366.22 812.46 410.759 876.795 410.759C912.675 410.759 944.842 395.913 965.875 363.745L1011.03 392.201C985.052 437.978 936.182 462.723 877.414 462.723Z" fill="#062F7E"/>
  <path d="M547.398 462.723C446.565 462.723 374.188 392.82 374.188 295.079C374.188 197.339 446.565 128.055 547.398 128.055C606.166 128.055 655.036 152.18 681.018 197.958L635.86 227.032C614.827 194.865 582.659 180.018 546.78 180.018C482.444 180.018 434.193 225.176 434.193 295.079C434.193 366.22 482.444 410.759 546.78 410.759C582.659 410.759 614.827 395.913 635.86 363.745L681.018 392.201C655.036 437.978 606.166 462.723 547.398 462.723Z" fill="#062F7E"/>
  <path d="M329.504 300.869C329.504 333.454 319.841 365.307 301.738 392.4C283.635 419.494 257.904 440.61 227.8 453.08C197.695 465.55 164.569 468.812 132.611 462.455C100.652 456.098 71.2958 440.407 48.2548 417.366C25.2138 394.325 9.52273 364.969 3.16574 333.011C-3.19125 301.052 0.0713852 267.926 12.5411 237.821C25.0108 207.717 46.1274 181.986 73.2207 163.883C100.314 145.78 132.167 136.117 164.752 136.117V186.366C142.105 186.366 119.967 193.081 101.137 205.663C82.3074 218.245 67.6312 236.128 58.9648 257.051C50.2983 277.973 48.0307 300.996 52.4489 323.208C56.867 345.419 67.7724 365.822 83.786 381.835C99.7995 397.849 120.202 408.754 142.414 413.172C164.625 417.59 187.648 415.323 208.571 406.656C229.493 397.99 247.376 383.314 259.958 364.484C272.54 345.654 279.255 323.516 279.255 300.869H329.504Z" fill="#062F7E"/>
  <path d="M193.391 136.117H329.506V186.696H193.391V136.117Z" fill="#00D2EE"/>
  <path d="M329.5 145.789V275.21H278.178V145.789H329.5Z" fill="#00D2EE"/>
  <path d="M329.5 301.242V460.416H278.178V301.242H329.5Z" fill="#062F7E"/>
</svg>
